{"title":"Sanctum.2011.R5.LiNE.AC3.XViD-T0XiC-iNK","uid":6197327,"size":1531856501,"categoryP":"video","categoryS":"movies","magnet":"?xt=urn:btih:f97f5feb740d7d6343b679c12c7feba9f4f354f0&amp;dn=Sanctum.2011.R5.LiNE.AC3.XViD-T0XiC-iNK&amp;tr=udp%3A%2F%2Ftracker.openbittorrent.com%3A80&amp;tr=udp%3A%2F%2Fopen.demonii.com%3A1337&amp;tr=udp%3A%2F%2Ftracker.coppersurfer.tk%3A6969&amp;tr=udp%3A%2F%2Fexodus.desync.com%3A6969","seeders":0,"leechers":0,"uploader":"HeroMaster","files":-1,"time":1298485829,"description":"::::::::::::::Enjoy:Another:Release:From:T0XiC::::::::::::::\n\nFile:: Sanctum.2011.R5.LiNE.AC3.XViD-T0XiC-iNK\nVideo Source:: ....ELEKTRI4KA\nAudio Source:: ....Own\nLanguage::English\nIMDB: http://www.imdb.com/title/tt0881320/\n\nAn underwater cave diving team experiences a life-threatening crisis during an expedition\nto the unexplored and least accessible cave system in the world.\n\nFormat : AVI\n\nFormat/Info : Audio Video Interleave\n\nFile size : 1.42 GiB\n\nDuration : 1h 44mn\n\nOverall bit rate : 1 941 Kbps\n\nWriting application : VirtualDubMod 1.5.10.2 (build 2540/release)\n\nWriting library : VirtualDubMod build 2540/release\n\n\n\nVideo\n\nID : 0\n\nFormat : MPEG-4 Visual\n\nFormat profile : Advanced Simple@L5\n\nFormat settings, BVOP : Yes\n\nFormat settings, QPel : No\n\nFormat settings, GMC : No warppoints\n\nFormat settings, Matrix : Custom\n\nCodec ID : XVID\n\nCodec ID/Hint : XviD\n\nDuration : 1h 44mn\n\nBit rate : 1 483 Kbps\n\nWidth : 720 pixels\n\nHeight : 384 pixels\n\nDisplay aspect ratio : 1.875\n\nFrame rate : 25.000 fps\n\nColor space : YUV\n\nChroma subsampling : 4:2:0\n\nBit depth : 8 bits\n\nScan type : Progressive\n\nCompression mode : Lossy\n\nBits/(Pixel*Frame) : 0.215\n\nStream size : 1.08 GiB (76%)\n\nWriting library : XviD 58\n\n\n\nAudio\n\nID : 1\n\nFormat : AC-3\n\nFormat/Info : Audio Coding 3\n\nMode extension : CM (complete main)\n\nCodec ID : 2000\n\nDuration : 1h 44mn\n\nBit rate mode : Constant\n\nBit rate : 448 Kbps\n\nChannel(s) : 6 channels\n\nChannel positions : Front: L C R, Side: L R, LFE\n\nSampling rate : 48.0 KHz\n\nBit depth : 16 bits\n\nCompression mode : Lossy\n\nStream size : 334 MiB (23%)\n\nAlignment : Split accross interleaves\n\nInterleave, duration : 40 ms (1.00 video frame)\n\nInterleave, preload duration : 500 ms\n\nNOTES:: T0XiC-iNK is proud to present the first Sanctum R5, in 5.1 using our LiNE and genuine russian surround channels. Enjoy\n\n\n\n::Why Complain? Whats Free Is Free::\n\n\n\n::iNK is currently a free agent looking for work, if you would like iNK's touch, give me a email at:\n\n...&lt;a class=&quot;__cf_email__&quot; href=&quot;/cdn-cgi/l/email-protection&quot; data-cfemail=&quot;8befe2ece2ffeae7a5e2e5e0cbe7e2fdeea5e8e4e6&quot;&gt;[email&amp;#160;protected]&lt;/a&gt;&lt;script cf-hash='f9e31' type=&quot;text/javascript&quot;&gt;\n/* &lt;![CDATA[ */!function(){try{var t=&quot;currentScript&quot;in document?document.currentScript:function(){for(var t=document.getElementsByTagName(&quot;script&quot;),e=t.length;e--;)if(t[e].getAttribute(&quot;cf-hash&quot;))return t[e]}();if(t&amp;&amp;t.previousSibling){var e,r,n,i,c=t.previousSibling,a=c.getAttribute(&quot;data-cfemail&quot;);if(a){for(e=&quot;&quot;,r=parseInt(a.substr(0,2),16),n=2;a.length-n;n+=2)i=parseInt(a.substr(n,2),16)^r,e+=String.fromCharCode(i);e=document.createTextNode(e),c.parentNode.replaceChild(e,c)}}}catch(u){}}();/* ]]&gt; */&lt;/script&gt;\n\n\n\n::We are always looking for friends with unreleased DVD's, Screeners, R5's, Audio, Cams, Silvers,\n\n...and any other good sources you may have to offer - contact us: &lt;a class=&quot;__cf_email__&quot; href=&quot;/cdn-cgi/l/email-protection&quot; data-cfemail=&quot;90e4a0e8f9f3e2f5fcf5f1e3f5e3d0f8e5e3f8fdf1f9fcbef3fffd&quot;&gt;[email&amp;#160;protected]&lt;/a&gt;&lt;script cf-hash='f9e31' type=&quot;text/javascript&quot;&gt;\n/* &lt;![CDATA[ */!function(){try{var t=&quot;currentScript&quot;in document?document.currentScript:function(){for(var t=document.getElementsByTagName(&quot;script&quot;),e=t.length;e--;)if(t[e].getAttribute(&quot;cf-hash&quot;))return t[e]}();if(t&amp;&amp;t.previousSibling){var e,r,n,i,c=t.previousSibling,a=c.getAttribute(&quot;data-cfemail&quot;);if(a){for(e=&quot;&quot;,r=parseInt(a.substr(0,2),16),n=2;a.length-n;n+=2)i=parseInt(a.substr(n,2),16)^r,e+=String.fromCharCode(i);e=document.createTextNode(e),c.parentNode.replaceChild(e,c)}}}catch(u){}}();/* ]]&gt; */&lt;/script&gt;\n\n\n\n:::::::::::::::::::::::::::::::::::: Respect To :::::::::::::::::::::::::::::::::::::\n\n::IMAGiNE,FLAWL3SS,Hive-CM8,DiGiTALiNK,Tranz,Vik,OneTwo,Joey,bob,Unevano &amp; our friends on utn and PA::\n\n&quot;and to all of you who support us, Thank-You&quot;\n\n\nScreenshots:\n\n &lt;a href=&quot;\nhttp://www.postimg.com/image/29000/28811.jpg&quot; rel=&quot;nofollow&quot; target=&quot;_NEW&quot;&gt;\nhttp://www.postimg.com/image/29000/28811.jpg&lt;/a&gt;\n &lt;a href=&quot;\nhttp://www.postimg.com/image/29000/28813.jpg&quot; rel=&quot;nofollow&quot; target=&quot;_NEW&quot;&gt;\nhttp://www.postimg.com/image/29000/28813.jpg&lt;/a&gt;\n\n\nENJOY!\n\n","torrent":{"xt":"urn:btih:f97f5feb740d7d6343b679c12c7feba9f4f354f0","amp;dn":"Sanctum.2011.R5.LiNE.AC3.XViD-T0XiC-iNK","amp;tr":["udp%3A%2F%2Ftracker.openbittorrent.com%3A80","udp%3A%2F%2Fopen.demonii.com%3A1337","udp%3A%2F%2Ftracker.coppersurfer.tk%3A6969","udp%3A%2F%2Fexodus.desync.com%3A6969"],"infoHash":"f97f5feb740d7d6343b679c12c7feba9f4f354f0","infoHashBuffer":{"type":"Buffer","data":[249,127,95,235,116,13,125,99,67,182,121,193,44,127,235,169,244,243,84,240]},"announce":[],"urlList":[]}}